<svg width="680" height="360" viewBox="0 0 680 360" xmlns="http://www.w3.org/2000/svg">
<style>
@import url('https://fonts.googleapis.com/css2?family=DM+Sans:wght@400;500&amp;display=swap');
.m-title {
  font-family: 'DM Sans', sans-serif;
  font-weight: 500;
  font-size: 46px;
  fill: #1b2a3d;
  letter-spacing: 7px;
}
.m-sub {
  font-family: 'DM Sans', sans-serif;
  font-weight: 400;
  font-size: 12.5px;
  fill: #0d8a72;
  letter-spacing: 3px;
}
</style>

<g transform="translate(340, 140)">

<g fill="none" stroke="#1b2a3d" stroke-width="2.2" stroke-linecap="round" stroke-linejoin="round">
<circle cx="0" cy="0" r="50"/>

<line x1="0" y1="-62" x2="0" y2="-50"/>
<line x1="0" y1="50" x2="0" y2="62"/>
<line x1="-62" y1="0" x2="-50" y2="0"/>
<line x1="50" y1="0" x2="62" y2="0"/>
<line x1="-44" y1="-44" x2="-35" y2="-35"/>
<line x1="35" y1="-35" x2="44" y2="-44"/>
<line x1="-44" y1="44" x2="-35" y2="35"/>
<line x1="35" y1="35" x2="44" y2="44"/>

<line x1="-8" y1="-62" x2="8" y2="-62" stroke-width="3"/>
<line x1="-8" y1="62" x2="8" y2="62" stroke-width="3"/>
<line x1="-62" y1="-8" x2="-62" y2="8" stroke-width="3"/>
<line x1="62" y1="-8" x2="62" y2="8" stroke-width="3"/>
<line x1="-49" y1="-39" x2="-39" y2="-49" stroke-width="3"/>
<line x1="39" y1="-49" x2="49" y2="-39" stroke-width="3"/>
<line x1="-49" y1="39" x2="-39" y2="49" stroke-width="3"/>
<line x1="39" y1="49" x2="49" y2="39" stroke-width="3"/>
</g>

<circle cx="0" cy="0" r="34" fill="none" stroke="#1b2a3d" stroke-width="1.2"/>

<g stroke="#0d8a72" stroke-width="1.8" fill="none" stroke-linecap="round">
<circle cx="0" cy="-16" r="4.5"/>
<circle cx="-14" cy="-4" r="4.5"/>
<circle cx="14" cy="-4" r="4.5"/>
<circle cx="-8" cy="12" r="4.5"/>
<circle cx="8" cy="12" r="4.5"/>

<line x1="-3" y1="-12" x2="-11" y2="-7"/>
<line x1="3" y1="-12" x2="11" y2="-7"/>
<line x1="-14" y1="1" x2="-10" y2="8"/>
<line x1="14" y1="1" x2="10" y2="8"/>
<line x1="-4" y1="14" x2="4" y2="14"/>

<line x1="0" y1="-20" x2="0" y2="-24" opacity="0.5"/>
<line x1="-18" y1="-6" x2="-22" y2="-8" opacity="0.5"/>
<line x1="18" y1="-6" x2="22" y2="-8" opacity="0.5"/>
<line x1="-12" y1="16" x2="-16" y2="20" opacity="0.5"/>
<line x1="12" y1="16" x2="16" y2="20" opacity="0.5"/>
</g>

<g fill="#0d8a72">
<circle cx="0" cy="-16" r="2"/>
<circle cx="-14" cy="-4" r="2"/>
<circle cx="14" cy="-4" r="2"/>
<circle cx="-8" cy="12" r="2"/>
<circle cx="8" cy="12" r="2"/>
</g>

</g>

<text x="340" y="275" text-anchor="middle" class="m-title">MACHINA</text>

<line x1="235" y1="293" x2="445" y2="293" stroke="#0d8a72" stroke-width="0.6" opacity="0.35"/>

<text x="340" y="311" text-anchor="middle" class="m-sub">AI AGENTS FOR INDUSTRIAL MAINTENANCE</text>

</svg>
